Coordinates
version=1
nRows=13
nColumns=63
inDegrees=yes

Units are S.I. units (second, meters, Newtons, ...)
If the header above contains a line with 'inDegrees', this indicates whether rotational values are in degrees (yes) or radians (no).

endheader
time	pelvis_tilt	pelvis_list	pelvis_rotation	pelvis_tx	pelvis_ty	pelvis_tz	hip_flexion_r	hip_adduction_r	hip_rotation_r	knee_angle_r	knee_angle_r_beta	ankle_angle_r	subtalar_angle_r	mtp_angle_r	hip_flexion_l	hip_adduction_l	hip_rotation_l	knee_angle_l	knee_angle_l_beta	ankle_angle_l	subtalar_angle_l	mtp_angle_l	L5_S1_Flex_Ext	L5_S1_Lat_Bending	L5_S1_axial_rotation	L4_L5_Flex_Ext	L4_L5_Lat_Bending	L4_L5_axial_rotation	L3_L4_Flex_Ext	L3_L4_Lat_Bending	L3_L4_axial_rotation	L2_L3_Flex_Ext	L2_L3_Lat_Bending	L2_L3_axial_rotation	L1_L2_Flex_Ext	L1_L2_Lat_Bending	L1_L2_axial_rotation	L1_T12_Flex_Ext	L1_T12_Lat_Bending	L1_T12_axial_rotation	Abs_r3	Abs_r2	Abs_r1	Abs_t1	Abs_t2	neck_flexion	neck_bending	neck_rotation	arm_flex_r	arm_add_r	arm_rot_r	elbow_flex_r	pro_sup_r	wrist_flex_r	wrist_dev_r	arm_flex_l	arm_add_l	arm_rot_l	elbow_flex_l	pro_sup_l	wrist_flex_l	wrist_dev_l
2.508475	-0.300209	-3.782920	90.468072	0.332683	1.070794	0.428327	1.556833	-5.419134	-2.323461	7.421079	0.129522	28.825574	5.321067	0.000000	2.111192	4.399967	-4.564956	5.684326	0.099210	24.409497	1.340156	0.000000	0.191259	-0.709119	0.917956	0.355186	-0.943128	0.975328	0.314219	-1.724151	0.975328	0.218589	-1.724151	0.803212	0.177603	-1.446035	0.745839	0.109285	-1.098425	0.688467	1.366141	-8.021692	5.105397	0.000000	0.000000	27.410272	9.429751	-8.814419	160.582659	-32.714731	68.968610	38.227931	73.657068	9.588438	-6.843914	-10.068982	-23.397739	18.083584	36.709865	87.373487	-5.911787	3.846083
2.525424	-0.021918	-3.706657	90.783614	0.331244	1.070381	0.428417	1.430432	-5.204877	-2.707414	7.428525	0.129652	28.849538	5.420972	0.000000	2.137618	4.159556	-4.621530	5.958712	0.103999	24.748237	1.795382	0.000000	0.176050	-0.658395	0.807802	0.326942	-0.875666	0.858290	0.289232	-1.600822	0.858290	0.201207	-1.600822	0.706827	0.163480	-1.342600	0.656339	0.100595	-1.019854	0.605852	1.257506	-7.447900	4.492754	0.000000	0.000000	27.225645	9.362486	-7.937929	161.403995	-34.240613	70.892871	40.577623	75.254011	11.191126	-7.196037	-10.363206	-23.028843	17.471946	36.777180	87.357455	-5.878802	3.427347
2.542373	0.268639	-3.603815	91.074680	0.329785	1.070048	0.428512	1.282788	-4.981884	-3.082312	7.439068	0.129836	28.842116	5.540766	0.000000	2.147186	3.897139	-4.860782	6.257437	0.109213	25.129782	2.440343	0.000000	0.157474	-0.608478	0.722511	0.292444	-0.809275	0.767668	0.258713	-1.479452	0.767668	0.179977	-1.479452	0.632197	0.146230	-1.240807	0.587040	0.089980	-0.942532	0.541883	1.124818	-6.883220	4.018389	0.000000	0.000000	26.971723	9.176451	-7.415692	162.107893	-36.090116	72.492227	43.203361	76.622702	12.460476	-7.446651	-10.500331	-22.691917	17.159582	36.739961	87.341983	-5.821107	3.017798
2.559322	0.546093	-3.483475	91.353799	0.328362	1.069794	0.428589	1.118561	-4.768149	-3.415742	7.447212	0.129978	28.801226	5.618215	0.000000	2.146760	3.636285	-5.242713	6.572724	0.114716	25.528062	3.233726	0.000000	0.137539	-0.563556	0.648178	0.255424	-0.749529	0.688689	0.225964	-1.370229	0.688689	0.157194	-1.370229	0.567156	0.127719	-1.149202	0.526645	0.078590	-0.872948	0.486134	0.982430	-6.375053	3.604973	0.000000	0.000000	26.675724	8.950352	-7.122224	162.303926	-38.122474	73.202276	46.123628	77.979059	13.314495	-7.622279	-10.584151	-22.360868	16.864664	36.666834	87.335113	-5.743577	2.662560
2.576271	0.808773	-3.346441	91.620219	0.327001	1.069609	0.428626	0.936182	-4.563408	-3.693991	7.449427	0.130017	28.743786	5.650183	0.000000	2.133118	3.377254	-5.769615	6.899054	0.120411	25.943042	4.192741	0.000000	0.116326	-0.524309	0.588956	0.216030	-0.697332	0.625766	0.191113	-1.274806	0.625766	0.132950	-1.274806	0.515336	0.108021	-1.069172	0.478527	0.066469	-0.812155	0.441717	0.830908	-5.931093	3.275596	0.000000	0.000000	26.369263	8.636870	-7.088895	161.815927	-40.311078	72.895057	49.360708	79.078651	13.682163	-7.811107	-10.569806	-22.066796	16.740447	36.556651	87.321637	-5.702618	2.310355
2.593220	1.055756	-3.202950	91.868826	0.325708	1.069467	0.428626	0.744655	-4.367827	-3.906323	7.436994	0.129800	28.673834	5.636423	0.000000	2.111084	3.125531	-6.381323	7.221660	0.126042	26.356255	5.242491	0.000000	0.095774	-0.491230	0.544657	0.177862	-0.653335	0.578698	0.157347	-1.194376	0.578698	0.109460	-1.194376	0.476575	0.088936	-1.001715	0.442534	0.054725	-0.760915	0.408493	0.684103	-5.556888	3.029218	0.000000	0.000000	26.077468	8.308946	-7.252349	160.445507	-42.610479	71.352260	52.958177	79.966263	13.616026	-8.015783	-10.462566	-21.800339	16.755420	36.424343	87.298026	-5.721242	1.982489
2.610169	1.287830	-3.044979	92.101301	0.324502	1.069356	0.428572	0.538322	-4.181836	-4.097307	7.420250	0.129508	28.621143	5.627956	0.000000	2.063162	2.888715	-6.866421	7.524511	0.131327	26.711316	6.108391	0.000000	0.075254	-0.464471	0.500539	0.139754	-0.617747	0.531823	0.123635	-1.129316	0.531823	0.086008	-1.129316	0.437972	0.069881	-0.947150	0.406688	0.043000	-0.719466	0.375404	0.537531	-5.254193	2.783849	0.000000	0.000000	25.808744	8.006669	-7.504013	157.878752	-44.914575	67.825879	56.929087	81.486012	13.102522	-8.284286	-10.352619	-21.549210	16.729712	36.312151	87.291369	-5.782609	1.603616
2.627119	1.515673	-2.874940	92.302664	0.323401	1.069267	0.428485	0.322684	-3.993473	-4.239863	7.399326	0.129143	28.576136	5.604809	0.000000	1.993431	2.652462	-7.332763	7.811363	0.136334	27.038463	6.926444	0.000000	0.054664	-0.443276	0.453240	0.101516	-0.589557	0.481567	0.089807	-1.077782	0.481567	0.062475	-1.077782	0.396585	0.050761	-0.903929	0.368257	0.031235	-0.686635	0.339930	0.390458	-5.014429	2.520783	0.000000	0.000000	25.556123	7.754062	-7.843742	154.008503	-47.202308	62.670215	61.287787	83.041886	12.254198	-8.568738	-10.241929	-21.324458	16.738258	36.214735	87.279217	-5.932985	1.133987
2.644068	1.735403	-2.700815	92.471711	0.322431	1.069189	0.428405	0.108391	-3.806576	-4.334142	7.377560	0.128763	28.537373	5.570569	0.000000	1.909717	2.422294	-7.743173	8.076854	0.140968	27.314218	7.652108	0.000000	0.034028	-0.428773	0.393212	0.063193	-0.570268	0.417788	0.055904	-1.042519	0.417788	0.038890	-1.042519	0.344060	0.031598	-0.874354	0.319485	0.019444	-0.664170	0.294909	0.243058	-4.850369	2.186927	0.000000	0.000000	25.307404	7.591869	-8.219505	148.693129	-49.413041	55.961276	66.019277	84.430083	11.203882	-8.746290	-10.178988	-21.127288	16.714307	36.138704	87.272768	-6.164495	0.516034
2.661017	1.946516	-2.529255	92.600531	0.321626	1.069103	0.428342	-0.092957	-3.621227	-4.383240	7.365269	0.128548	28.494044	5.519916	0.000000	1.815792	2.201294	-8.056807	8.314080	0.145108	27.525645	8.227104	0.000000	0.013124	-0.421134	0.316619	0.024372	-0.560108	0.336408	0.021561	-1.023945	0.336408	0.014999	-1.023945	0.277042	0.012187	-0.858776	0.257253	0.007499	-0.652336	0.237464	0.093742	-4.763950	1.760941	0.000000	0.000000	25.034066	7.525889	-8.601504	141.889980	-51.482695	47.942315	71.070498	85.467727	10.069111	-8.728114	-10.203106	-20.961763	16.605666	36.111774	87.293571	-6.433466	-0.293487
2.677966	2.137742	-2.379723	92.678297	0.321019	1.068975	0.428294	-0.261882	-3.448099	-4.374968	7.361410	0.128481	28.434994	5.440585	0.000000	1.728657	2.003936	-8.236606	8.514953	0.148614	27.658659	8.595177	0.000000	-0.005953	-0.421323	0.225873	-0.011056	-0.560359	0.239990	-0.009780	-1.024404	0.239990	-0.006804	-1.024404	0.197639	-0.005528	-0.859161	0.183522	-0.003402	-0.652629	0.169405	-0.042523	-4.766085	1.256236	0.000000	0.000000	24.708788	7.527335	-8.979513	133.630430	-53.333633	38.883420	76.405512	86.081598	8.902537	-8.491481	-10.322370	-20.838247	16.417490	36.172440	87.342074	-6.685073	-1.273144
2.694915	2.308497	-2.260885	92.706031	0.320584	1.068749	0.428265	-0.385770	-3.291801	-4.331707	7.378679	0.128782	28.364348	5.349637	0.000000	1.658834	1.835528	-8.264789	8.680212	0.151498	27.714269	8.723833	0.000000	-0.023375	-0.427423	0.126342	-0.043411	-0.568473	0.134239	-0.038404	-1.039236	0.134239	-0.026716	-1.039236	0.110550	-0.021706	-0.871601	0.102653	-0.013357	-0.662078	0.094757	-0.166969	-4.835094	0.702678	0.000000	0.000000	24.315911	7.518977	-9.366841	124.257089	-54.839221	29.568669	81.850726	86.259955	7.688315	-8.185074	-10.520423	-20.738142	16.127839	36.382848	87.431758	-6.863087	-2.328456
2.711864	2.462539	-2.187936	92.705276	0.320329	1.068395	0.428214	-0.460015	-3.145283	-4.266166	7.407709	0.129289	28.269286	5.226272	0.000000	1.619901	1.689898	-8.126941	8.807604	0.153722	27.709932	8.629366	0.000000	-0.037447	-0.438767	0.020789	-0.069542	-0.583560	0.022088	-0.061521	-1.066817	0.022088	-0.042798	-1.066817	0.018190	-0.034773	-0.894733	0.016891	-0.021397	-0.679649	0.015592	-0.267477	-4.963415	0.115621	0.000000	0.000000	23.868568	7.525685	-9.752575	113.850304	-55.899345	20.109060	87.322850	86.195469	6.607887	-7.810618	-10.792614	-20.663403	15.744397	36.806806	87.548559	-6.932346	-3.537501
